<mxfile host="app.diagrams.net" modified="2023-03-01T21:45:24.844Z" agent="5.0 (Windows)" etag="ijevl8_Tx6q4_IFI1pGc" version="20.8.23" type="github" pages="15">
  <diagram name="Page-1" id="4P57Q4Xdh3i9grjx1nm5">
    <mxGraphModel dx="683" dy="373" grid="1" gridSize="10" guides="1" tooltips="1" connect="1" arrows="1" fold="1" page="1" pageScale="1" pageWidth="850" pageHeight="1100" math="0" shadow="0">
      <root>
        <mxCell id="0" />
        <mxCell id="1" parent="0" />
        <mxCell id="JzGimEO7neGyn75tqu1u-23" value="" style="rounded=0;whiteSpace=wrap;html=1;" vertex="1" parent="1">
          <mxGeometry x="50" y="50" width="400" height="200" as="geometry" />
        </mxCell>
        <mxCell id="JzGimEO7neGyn75tqu1u-51" value="" style="rounded=1;whiteSpace=wrap;html=1;fontSize=10;fillStyle=solid;fillColor=#dae8fc;strokeColor=#6c8ebf;rotation=0;spacing=2;strokeWidth=1;arcSize=5;" vertex="1" parent="1">
          <mxGeometry x="60" y="90" width="150" height="150" as="geometry" />
        </mxCell>
        <mxCell id="JzGimEO7neGyn75tqu1u-46" value="" style="rounded=1;whiteSpace=wrap;html=1;fontSize=10;fillStyle=solid;fillColor=#dae8fc;strokeColor=#6c8ebf;rotation=0;spacing=2;strokeWidth=1;arcSize=5;" vertex="1" parent="1">
          <mxGeometry x="220" y="90" width="220" height="100" as="geometry" />
        </mxCell>
        <mxCell id="JzGimEO7neGyn75tqu1u-45" value="" style="rounded=1;whiteSpace=wrap;html=1;fontSize=10;fillStyle=solid;fillColor=#dae8fc;strokeColor=#6c8ebf;" vertex="1" parent="1">
          <mxGeometry x="220" y="65" width="220" height="20" as="geometry" />
        </mxCell>
        <mxCell id="JzGimEO7neGyn75tqu1u-25" value="&lt;div align=&quot;left&quot;&gt;Toy #1&lt;/div&gt;" style="text;html=1;strokeColor=none;fillColor=none;align=left;verticalAlign=middle;whiteSpace=wrap;rounded=0;" vertex="1" parent="1">
          <mxGeometry x="270" y="100" width="55" height="20" as="geometry" />
        </mxCell>
        <mxCell id="JzGimEO7neGyn75tqu1u-32" value="1x" style="text;html=1;strokeColor=none;fillColor=none;align=center;verticalAlign=middle;whiteSpace=wrap;rounded=0;" vertex="1" parent="1">
          <mxGeometry x="235" y="100" width="30" height="20" as="geometry" />
        </mxCell>
        <mxCell id="JzGimEO7neGyn75tqu1u-33" value="25.00" style="text;html=1;strokeColor=none;fillColor=none;align=center;verticalAlign=middle;whiteSpace=wrap;rounded=0;" vertex="1" parent="1">
          <mxGeometry x="375" y="100" width="50" height="20" as="geometry" />
        </mxCell>
        <mxCell id="JzGimEO7neGyn75tqu1u-40" value="Continue To Checkout" style="text;html=1;strokeColor=#6c8ebf;fillColor=#dae8fc;align=center;verticalAlign=middle;whiteSpace=wrap;rounded=1;fontSize=9;" vertex="1" parent="1">
          <mxGeometry x="335" y="155" width="90" height="30" as="geometry" />
        </mxCell>
        <mxCell id="JzGimEO7neGyn75tqu1u-41" value="Shopping Cart" style="text;html=1;strokeColor=none;fillColor=none;align=center;verticalAlign=middle;whiteSpace=wrap;rounded=0;fontSize=9;" vertex="1" parent="1">
          <mxGeometry x="220" y="60" width="75" height="30" as="geometry" />
        </mxCell>
        <mxCell id="JzGimEO7neGyn75tqu1u-48" value="" style="rounded=1;whiteSpace=wrap;html=1;fontSize=10;fillStyle=solid;fillColor=#dae8fc;strokeColor=#6c8ebf;" vertex="1" parent="1">
          <mxGeometry x="60" y="65" width="150" height="20" as="geometry" />
        </mxCell>
        <mxCell id="JzGimEO7neGyn75tqu1u-49" value="&lt;div align=&quot;left&quot;&gt;Menu&lt;/div&gt;" style="text;html=1;strokeColor=none;fillColor=none;align=left;verticalAlign=middle;whiteSpace=wrap;rounded=0;fontSize=9;" vertex="1" parent="1">
          <mxGeometry x="70" y="60" width="75" height="30" as="geometry" />
        </mxCell>
        <mxCell id="JzGimEO7neGyn75tqu1u-50" value="&lt;div align=&quot;center&quot;&gt;Content&lt;/div&gt;" style="text;html=1;strokeColor=none;fillColor=none;align=center;verticalAlign=middle;whiteSpace=wrap;rounded=0;fontSize=9;" vertex="1" parent="1">
          <mxGeometry x="97.5" y="135" width="75" height="30" as="geometry" />
        </mxCell>
        <mxCell id="JzGimEO7neGyn75tqu1u-53" value="&lt;div&gt;Close&lt;/div&gt;" style="text;html=1;strokeColor=none;fillColor=none;align=center;verticalAlign=middle;whiteSpace=wrap;rounded=0;fontSize=9;" vertex="1" parent="1">
          <mxGeometry x="220" y="170" width="40" height="20" as="geometry" />
        </mxCell>
      </root>
    </mxGraphModel>
  </diagram>
  <diagram name="Page-1" id="PNJ3gW4itHv3KXjG_k6z">
    <mxGraphModel dx="1434" dy="783" grid="1" gridSize="10" guides="1" tooltips="1" connect="1" arrows="1" fold="1" page="1" pageScale="1" pageWidth="850" pageHeight="1100" math="0" shadow="0">
      <root>
        <mxCell id="0" />
        <mxCell id="1" parent="0" />
        <mxCell id="bYeL3ldjOajnDBS3Vtse-1" value="" style="rounded=0;whiteSpace=wrap;html=1;" parent="1" vertex="1">
          <mxGeometry x="40" y="40" width="400" height="200" as="geometry" />
        </mxCell>
        <mxCell id="bYeL3ldjOajnDBS3Vtse-9" value="" style="rounded=1;whiteSpace=wrap;html=1;fontSize=10;fillStyle=solid;fillColor=#dae8fc;strokeColor=#6c8ebf;" parent="1" vertex="1">
          <mxGeometry x="55" y="80" width="370" height="20" as="geometry" />
        </mxCell>
        <mxCell id="bYeL3ldjOajnDBS3Vtse-2" value="&lt;div align=&quot;left&quot;&gt;Toy #1&lt;/div&gt;" style="text;html=1;strokeColor=none;fillColor=none;align=left;verticalAlign=middle;whiteSpace=wrap;rounded=0;" parent="1" vertex="1">
          <mxGeometry x="65" y="110" width="170" height="20" as="geometry" />
        </mxCell>
        <mxCell id="bYeL3ldjOajnDBS3Vtse-3" value="&lt;font style=&quot;font-size: 10px;&quot;&gt;Amount&lt;/font&gt;" style="text;html=1;strokeColor=none;fillColor=none;align=center;verticalAlign=middle;whiteSpace=wrap;rounded=0;" parent="1" vertex="1">
          <mxGeometry x="370" y="80" width="50" height="20" as="geometry" />
        </mxCell>
        <mxCell id="bYeL3ldjOajnDBS3Vtse-4" value="&lt;font style=&quot;font-size: 10px;&quot;&gt;Price&lt;/font&gt;" style="text;html=1;strokeColor=none;fillColor=none;align=center;verticalAlign=middle;whiteSpace=wrap;rounded=0;" parent="1" vertex="1">
          <mxGeometry x="320" y="80" width="50" height="20" as="geometry" />
        </mxCell>
        <mxCell id="bYeL3ldjOajnDBS3Vtse-5" value="&lt;font style=&quot;font-size: 10px;&quot;&gt;Qty&lt;/font&gt;" style="text;html=1;strokeColor=none;fillColor=none;align=center;verticalAlign=middle;whiteSpace=wrap;rounded=0;" parent="1" vertex="1">
          <mxGeometry x="270" y="80" width="50" height="20" as="geometry" />
        </mxCell>
        <mxCell id="bYeL3ldjOajnDBS3Vtse-10" value="&lt;div align=&quot;left&quot;&gt;Product&lt;/div&gt;" style="text;html=1;strokeColor=none;fillColor=none;align=left;verticalAlign=middle;whiteSpace=wrap;rounded=0;fontSize=10;" parent="1" vertex="1">
          <mxGeometry x="65" y="80" width="60" height="20" as="geometry" />
        </mxCell>
        <mxCell id="bYeL3ldjOajnDBS3Vtse-12" value="Shipping:" style="text;html=1;strokeColor=none;fillColor=none;align=center;verticalAlign=middle;whiteSpace=wrap;rounded=0;fontSize=10;" parent="1" vertex="1">
          <mxGeometry x="315" y="140" width="50" height="15" as="geometry" />
        </mxCell>
        <mxCell id="bYeL3ldjOajnDBS3Vtse-6" value="&lt;div align=&quot;right&quot;&gt;5.00&lt;/div&gt;" style="text;html=1;strokeColor=none;fillColor=none;align=right;verticalAlign=middle;whiteSpace=wrap;rounded=0;fontSize=10;" parent="1" vertex="1">
          <mxGeometry x="365" y="140" width="50" height="15" as="geometry" />
        </mxCell>
        <mxCell id="bYeL3ldjOajnDBS3Vtse-7" value="1" style="text;html=1;strokeColor=none;fillColor=none;align=center;verticalAlign=middle;whiteSpace=wrap;rounded=0;" parent="1" vertex="1">
          <mxGeometry x="270" y="110" width="50" height="20" as="geometry" />
        </mxCell>
        <mxCell id="bYeL3ldjOajnDBS3Vtse-8" value="25.00" style="text;html=1;strokeColor=none;fillColor=none;align=center;verticalAlign=middle;whiteSpace=wrap;rounded=0;" parent="1" vertex="1">
          <mxGeometry x="370" y="110" width="50" height="20" as="geometry" />
        </mxCell>
        <mxCell id="bYeL3ldjOajnDBS3Vtse-13" value="25.00" style="text;html=1;strokeColor=none;fillColor=none;align=center;verticalAlign=middle;whiteSpace=wrap;rounded=0;" parent="1" vertex="1">
          <mxGeometry x="320" y="110" width="50" height="20" as="geometry" />
        </mxCell>
        <mxCell id="bYeL3ldjOajnDBS3Vtse-14" value="&lt;div align=&quot;right&quot;&gt;Total:&lt;/div&gt;" style="text;html=1;strokeColor=none;fillColor=none;align=right;verticalAlign=middle;whiteSpace=wrap;rounded=0;fontSize=10;" parent="1" vertex="1">
          <mxGeometry x="315" y="155" width="50" height="15" as="geometry" />
        </mxCell>
        <mxCell id="bYeL3ldjOajnDBS3Vtse-15" value="&lt;div align=&quot;right&quot;&gt;30.00&lt;/div&gt;" style="text;html=1;strokeColor=none;fillColor=none;align=right;verticalAlign=middle;whiteSpace=wrap;rounded=0;fontSize=10;" parent="1" vertex="1">
          <mxGeometry x="365" y="155" width="50" height="15" as="geometry" />
        </mxCell>
        <mxCell id="bYeL3ldjOajnDBS3Vtse-18" value="" style="line;strokeWidth=2;html=1;fillStyle=solid;fontSize=10;fillColor=default;gradientColor=none;" parent="1" vertex="1">
          <mxGeometry x="65" y="130" width="350" height="10" as="geometry" />
        </mxCell>
        <mxCell id="bYeL3ldjOajnDBS3Vtse-19" value="" style="line;strokeWidth=2;html=1;fillStyle=solid;fontSize=10;fillColor=default;gradientColor=none;" parent="1" vertex="1">
          <mxGeometry x="65" y="170" width="350" height="10" as="geometry" />
        </mxCell>
        <mxCell id="bYeL3ldjOajnDBS3Vtse-20" value="&lt;div style=&quot;font-size: 9px;&quot;&gt;&lt;font style=&quot;font-size: 9px;&quot;&gt;&lt;span style=&quot;font-weight: normal;&quot;&gt;Price in &lt;br&gt;&lt;/span&gt;&lt;/font&gt;&lt;/div&gt;&lt;div style=&quot;font-size: 9px;&quot;&gt;&lt;font style=&quot;font-size: 9px;&quot;&gt;&lt;span style=&quot;font-weight: normal;&quot;&gt;USD&lt;/span&gt;&lt;/font&gt;&lt;/div&gt;" style="text;strokeColor=none;fillColor=none;html=1;fontSize=10;fontStyle=1;verticalAlign=middle;align=center;" parent="1" vertex="1">
          <mxGeometry x="65" y="140" width="60" height="30" as="geometry" />
        </mxCell>
        <mxCell id="bYeL3ldjOajnDBS3Vtse-21" value="continue to shipping address" style="text;html=1;strokeColor=#6c8ebf;fillColor=#dae8fc;align=center;verticalAlign=middle;whiteSpace=wrap;rounded=1;fontSize=9;" parent="1" vertex="1">
          <mxGeometry x="335" y="200" width="90" height="30" as="geometry" />
        </mxCell>
        <mxCell id="bYeL3ldjOajnDBS3Vtse-22" value="Shopping Cart" style="text;html=1;strokeColor=none;fillColor=none;align=center;verticalAlign=middle;whiteSpace=wrap;rounded=0;fontSize=9;" parent="1" vertex="1">
          <mxGeometry x="55" y="50" width="60" height="30" as="geometry" />
        </mxCell>
      </root>
    </mxGraphModel>
  </diagram>
  <diagram name="Page-2" id="ov4MRlgO7KrC2xt_00B9">
    <mxGraphModel dx="1434" dy="783" grid="1" gridSize="10" guides="1" tooltips="1" connect="1" arrows="1" fold="1" page="1" pageScale="1" pageWidth="850" pageHeight="1100" math="0" shadow="0">
      <root>
        <mxCell id="0" />
        <mxCell id="1" parent="0" />
        <mxCell id="Wfa8fRLMfyAqHicrjwAj-1" value="" style="rounded=0;whiteSpace=wrap;html=1;" parent="1" vertex="1">
          <mxGeometry x="40" y="40" width="400" height="200" as="geometry" />
        </mxCell>
        <mxCell id="Wfa8fRLMfyAqHicrjwAj-2" value="" style="rounded=1;whiteSpace=wrap;html=1;fontSize=10;fillStyle=solid;fillColor=#dae8fc;strokeColor=#6c8ebf;" parent="1" vertex="1">
          <mxGeometry x="55" y="80" width="370" height="20" as="geometry" />
        </mxCell>
        <mxCell id="Wfa8fRLMfyAqHicrjwAj-3" value="&lt;div align=&quot;left&quot;&gt;Toy #1&lt;/div&gt;" style="text;html=1;strokeColor=none;fillColor=none;align=left;verticalAlign=middle;whiteSpace=wrap;rounded=0;" parent="1" vertex="1">
          <mxGeometry x="65" y="110" width="170" height="20" as="geometry" />
        </mxCell>
        <mxCell id="Wfa8fRLMfyAqHicrjwAj-4" value="&lt;font style=&quot;font-size: 10px;&quot;&gt;Amount&lt;/font&gt;" style="text;html=1;strokeColor=none;fillColor=none;align=center;verticalAlign=middle;whiteSpace=wrap;rounded=0;" parent="1" vertex="1">
          <mxGeometry x="370" y="80" width="50" height="20" as="geometry" />
        </mxCell>
        <mxCell id="Wfa8fRLMfyAqHicrjwAj-5" value="&lt;font style=&quot;font-size: 10px;&quot;&gt;Price&lt;/font&gt;" style="text;html=1;strokeColor=none;fillColor=none;align=center;verticalAlign=middle;whiteSpace=wrap;rounded=0;" parent="1" vertex="1">
          <mxGeometry x="320" y="80" width="50" height="20" as="geometry" />
        </mxCell>
        <mxCell id="Wfa8fRLMfyAqHicrjwAj-6" value="&lt;font style=&quot;font-size: 10px;&quot;&gt;Qty&lt;/font&gt;" style="text;html=1;strokeColor=none;fillColor=none;align=center;verticalAlign=middle;whiteSpace=wrap;rounded=0;" parent="1" vertex="1">
          <mxGeometry x="270" y="80" width="50" height="20" as="geometry" />
        </mxCell>
        <mxCell id="Wfa8fRLMfyAqHicrjwAj-7" value="&lt;div align=&quot;left&quot;&gt;Product&lt;/div&gt;" style="text;html=1;strokeColor=none;fillColor=none;align=left;verticalAlign=middle;whiteSpace=wrap;rounded=0;fontSize=10;" parent="1" vertex="1">
          <mxGeometry x="65" y="80" width="60" height="20" as="geometry" />
        </mxCell>
        <mxCell id="Wfa8fRLMfyAqHicrjwAj-8" value="Shipping:" style="text;html=1;strokeColor=none;fillColor=none;align=center;verticalAlign=middle;whiteSpace=wrap;rounded=0;fontSize=10;" parent="1" vertex="1">
          <mxGeometry x="315" y="140" width="50" height="15" as="geometry" />
        </mxCell>
        <mxCell id="Wfa8fRLMfyAqHicrjwAj-9" value="&lt;div align=&quot;right&quot;&gt;5.00&lt;/div&gt;" style="text;html=1;strokeColor=none;fillColor=none;align=right;verticalAlign=middle;whiteSpace=wrap;rounded=0;fontSize=10;" parent="1" vertex="1">
          <mxGeometry x="365" y="140" width="50" height="15" as="geometry" />
        </mxCell>
        <mxCell id="Wfa8fRLMfyAqHicrjwAj-10" value="1" style="text;html=1;strokeColor=none;fillColor=none;align=center;verticalAlign=middle;whiteSpace=wrap;rounded=0;" parent="1" vertex="1">
          <mxGeometry x="270" y="110" width="50" height="20" as="geometry" />
        </mxCell>
        <mxCell id="Wfa8fRLMfyAqHicrjwAj-11" value="25.00" style="text;html=1;strokeColor=none;fillColor=none;align=center;verticalAlign=middle;whiteSpace=wrap;rounded=0;" parent="1" vertex="1">
          <mxGeometry x="370" y="110" width="50" height="20" as="geometry" />
        </mxCell>
        <mxCell id="Wfa8fRLMfyAqHicrjwAj-12" value="25.00" style="text;html=1;strokeColor=none;fillColor=none;align=center;verticalAlign=middle;whiteSpace=wrap;rounded=0;" parent="1" vertex="1">
          <mxGeometry x="320" y="110" width="50" height="20" as="geometry" />
        </mxCell>
        <mxCell id="Wfa8fRLMfyAqHicrjwAj-13" value="&lt;div align=&quot;right&quot;&gt;Total:&lt;/div&gt;" style="text;html=1;strokeColor=none;fillColor=none;align=right;verticalAlign=middle;whiteSpace=wrap;rounded=0;fontSize=10;" parent="1" vertex="1">
          <mxGeometry x="315" y="155" width="50" height="15" as="geometry" />
        </mxCell>
        <mxCell id="Wfa8fRLMfyAqHicrjwAj-14" value="&lt;div align=&quot;right&quot;&gt;30.00&lt;/div&gt;" style="text;html=1;strokeColor=none;fillColor=none;align=right;verticalAlign=middle;whiteSpace=wrap;rounded=0;fontSize=10;" parent="1" vertex="1">
          <mxGeometry x="365" y="155" width="50" height="15" as="geometry" />
        </mxCell>
        <mxCell id="Wfa8fRLMfyAqHicrjwAj-15" value="" style="line;strokeWidth=2;html=1;fillStyle=solid;fontSize=10;fillColor=default;gradientColor=none;" parent="1" vertex="1">
          <mxGeometry x="65" y="130" width="350" height="10" as="geometry" />
        </mxCell>
        <mxCell id="Wfa8fRLMfyAqHicrjwAj-16" value="" style="line;strokeWidth=2;html=1;fillStyle=solid;fontSize=10;fillColor=default;gradientColor=none;" parent="1" vertex="1">
          <mxGeometry x="65" y="170" width="350" height="10" as="geometry" />
        </mxCell>
        <mxCell id="Wfa8fRLMfyAqHicrjwAj-17" value="&lt;div style=&quot;font-size: 9px;&quot;&gt;&lt;font style=&quot;font-size: 9px;&quot;&gt;&lt;span style=&quot;font-weight: normal;&quot;&gt;Price in &lt;br&gt;&lt;/span&gt;&lt;/font&gt;&lt;/div&gt;&lt;div style=&quot;font-size: 9px;&quot;&gt;&lt;font style=&quot;font-size: 9px;&quot;&gt;&lt;span style=&quot;font-weight: normal;&quot;&gt;USD&lt;/span&gt;&lt;/font&gt;&lt;/div&gt;" style="text;strokeColor=none;fillColor=none;html=1;fontSize=10;fontStyle=1;verticalAlign=middle;align=center;" parent="1" vertex="1">
          <mxGeometry x="65" y="140" width="60" height="30" as="geometry" />
        </mxCell>
        <mxCell id="Wfa8fRLMfyAqHicrjwAj-18" value="Credit Card" style="text;html=1;strokeColor=#6c8ebf;fillColor=#dae8fc;align=center;verticalAlign=middle;whiteSpace=wrap;rounded=1;fontSize=9;" parent="1" vertex="1">
          <mxGeometry x="330" y="200" width="90" height="30" as="geometry" />
        </mxCell>
        <mxCell id="Wfa8fRLMfyAqHicrjwAj-19" value="Checkout" style="text;html=1;strokeColor=none;fillColor=none;align=center;verticalAlign=middle;whiteSpace=wrap;rounded=0;fontSize=9;" parent="1" vertex="1">
          <mxGeometry x="55" y="50" width="60" height="30" as="geometry" />
        </mxCell>
        <mxCell id="naZHiXFUbVpdeEcA0QaH-1" value="After Pick Up" style="text;html=1;strokeColor=#6c8ebf;fillColor=#dae8fc;align=center;verticalAlign=middle;whiteSpace=wrap;rounded=1;fontSize=9;" parent="1" vertex="1">
          <mxGeometry x="220" y="200" width="90" height="30" as="geometry" />
        </mxCell>
        <mxCell id="naZHiXFUbVpdeEcA0QaH-2" value="or" style="text;html=1;strokeColor=none;fillColor=none;align=center;verticalAlign=middle;whiteSpace=wrap;rounded=0;fontSize=10;" parent="1" vertex="1">
          <mxGeometry x="310" y="200" width="20" height="30" as="geometry" />
        </mxCell>
        <mxCell id="naZHiXFUbVpdeEcA0QaH-3" value="&lt;div align=&quot;right&quot;&gt;Payment Options:&lt;/div&gt;" style="text;html=1;strokeColor=none;fillColor=none;align=right;verticalAlign=middle;whiteSpace=wrap;rounded=0;fontSize=10;" parent="1" vertex="1">
          <mxGeometry x="87.5" y="200" width="125" height="30" as="geometry" />
        </mxCell>
      </root>
    </mxGraphModel>
  </diagram>
  <diagram name="Page-3" id="5J-cCM6eW48z0zxNIFZD">
    <mxGraphModel dx="1434" dy="783" grid="1" gridSize="10" guides="1" tooltips="1" connect="1" arrows="1" fold="1" page="1" pageScale="1" pageWidth="850" pageHeight="1100" math="0" shadow="0">
      <root>
        <mxCell id="0" />
        <mxCell id="1" parent="0" />
        <mxCell id="mCKU804IUtU_BW1e_TXx-1" value="" style="rounded=0;whiteSpace=wrap;html=1;" parent="1" vertex="1">
          <mxGeometry x="40" y="40" width="400" height="200" as="geometry" />
        </mxCell>
        <mxCell id="mCKU804IUtU_BW1e_TXx-2" value="" style="rounded=1;whiteSpace=wrap;html=1;fontSize=10;fillStyle=solid;fillColor=#dae8fc;strokeColor=#6c8ebf;" parent="1" vertex="1">
          <mxGeometry x="55" y="80" width="370" height="30" as="geometry" />
        </mxCell>
        <mxCell id="mCKU804IUtU_BW1e_TXx-7" value="CC Number" style="text;html=1;strokeColor=none;fillColor=none;align=left;verticalAlign=middle;whiteSpace=wrap;rounded=0;fontSize=10;" parent="1" vertex="1">
          <mxGeometry x="65" y="85" width="60" height="20" as="geometry" />
        </mxCell>
        <mxCell id="mCKU804IUtU_BW1e_TXx-18" value="&lt;div&gt;Save Information&lt;/div&gt;" style="text;html=1;strokeColor=#6c8ebf;fillColor=#dae8fc;align=center;verticalAlign=middle;whiteSpace=wrap;rounded=1;fontSize=9;" parent="1" vertex="1">
          <mxGeometry x="325" y="190" width="90" height="30" as="geometry" />
        </mxCell>
        <mxCell id="mCKU804IUtU_BW1e_TXx-19" value="Credit Card" style="text;html=1;strokeColor=none;fillColor=none;align=center;verticalAlign=middle;whiteSpace=wrap;rounded=0;fontSize=9;" parent="1" vertex="1">
          <mxGeometry x="55" y="50" width="60" height="30" as="geometry" />
        </mxCell>
        <mxCell id="mCKU804IUtU_BW1e_TXx-25" value="" style="rounded=1;whiteSpace=wrap;html=1;fontSize=10;fillStyle=solid;fillColor=#dae8fc;strokeColor=#6c8ebf;" parent="1" vertex="1">
          <mxGeometry x="280" y="120" width="65" height="30" as="geometry" />
        </mxCell>
        <mxCell id="mCKU804IUtU_BW1e_TXx-26" value="" style="rounded=1;whiteSpace=wrap;html=1;fontSize=10;fillStyle=solid;fillColor=#dae8fc;strokeColor=#6c8ebf;" parent="1" vertex="1">
          <mxGeometry x="160" y="120" width="105" height="30" as="geometry" />
        </mxCell>
        <mxCell id="mCKU804IUtU_BW1e_TXx-29" value="" style="rounded=1;whiteSpace=wrap;html=1;fontSize=10;fillStyle=solid;fillColor=#dae8fc;strokeColor=#6c8ebf;" parent="1" vertex="1">
          <mxGeometry x="360" y="120" width="65" height="30" as="geometry" />
        </mxCell>
        <mxCell id="mCKU804IUtU_BW1e_TXx-28" value="CVV" style="text;html=1;strokeColor=none;fillColor=none;align=center;verticalAlign=middle;whiteSpace=wrap;rounded=0;fontSize=10;" parent="1" vertex="1">
          <mxGeometry x="370" y="125" width="45" height="20" as="geometry" />
        </mxCell>
        <mxCell id="mCKU804IUtU_BW1e_TXx-30" value="&lt;div align=&quot;center&quot;&gt;MM/YY&lt;/div&gt;" style="text;html=1;strokeColor=none;fillColor=none;align=center;verticalAlign=middle;whiteSpace=wrap;rounded=0;fontSize=10;" parent="1" vertex="1">
          <mxGeometry x="290" y="125" width="45" height="20" as="geometry" />
        </mxCell>
        <mxCell id="mCKU804IUtU_BW1e_TXx-31" value="ZIP" style="text;html=1;strokeColor=none;fillColor=none;align=center;verticalAlign=middle;whiteSpace=wrap;rounded=0;fontSize=10;" parent="1" vertex="1">
          <mxGeometry x="190" y="125" width="45" height="20" as="geometry" />
        </mxCell>
        <mxCell id="mCKU804IUtU_BW1e_TXx-32" value="" style="line;strokeWidth=4;html=1;perimeter=backbonePerimeter;points=[];outlineConnect=0;fontSize=10;" parent="1" vertex="1">
          <mxGeometry x="60" y="170" width="365" height="10" as="geometry" />
        </mxCell>
      </root>
    </mxGraphModel>
  </diagram>
  <diagram name="Page-4" id="hgwqXKeOr9Bvp2JVNMQh">
    <mxGraphModel dx="1434" dy="783" grid="1" gridSize="10" guides="1" tooltips="1" connect="1" arrows="1" fold="1" page="1" pageScale="1" pageWidth="850" pageHeight="1100" math="0" shadow="0">
      <root>
        <mxCell id="0" />
        <mxCell id="1" parent="0" />
        <mxCell id="i0I8L3ptp_wrLTSy747K-1" value="" style="rounded=0;whiteSpace=wrap;html=1;" parent="1" vertex="1">
          <mxGeometry x="40" y="40" width="400" height="200" as="geometry" />
        </mxCell>
        <mxCell id="i0I8L3ptp_wrLTSy747K-2" value="" style="rounded=1;whiteSpace=wrap;html=1;fontSize=10;fillStyle=solid;fillColor=#dae8fc;strokeColor=#6c8ebf;" parent="1" vertex="1">
          <mxGeometry x="55" y="80" width="370" height="30" as="geometry" />
        </mxCell>
        <mxCell id="i0I8L3ptp_wrLTSy747K-3" value="Title" style="text;html=1;strokeColor=none;fillColor=none;align=left;verticalAlign=middle;whiteSpace=wrap;rounded=0;fontSize=10;" parent="1" vertex="1">
          <mxGeometry x="65" y="85" width="60" height="20" as="geometry" />
        </mxCell>
        <mxCell id="i0I8L3ptp_wrLTSy747K-4" value="&lt;div&gt;Save Rating&lt;br&gt;&lt;/div&gt;" style="text;html=1;strokeColor=#6c8ebf;fillColor=#dae8fc;align=center;verticalAlign=middle;whiteSpace=wrap;rounded=1;fontSize=9;" parent="1" vertex="1">
          <mxGeometry x="330" y="190" width="90" height="30" as="geometry" />
        </mxCell>
        <mxCell id="i0I8L3ptp_wrLTSy747K-5" value="Rating" style="text;html=1;strokeColor=none;fillColor=none;align=center;verticalAlign=middle;whiteSpace=wrap;rounded=0;fontSize=9;" parent="1" vertex="1">
          <mxGeometry x="55" y="50" width="60" height="30" as="geometry" />
        </mxCell>
        <mxCell id="i0I8L3ptp_wrLTSy747K-12" value="" style="line;strokeWidth=4;html=1;perimeter=backbonePerimeter;points=[];outlineConnect=0;fontSize=10;" parent="1" vertex="1">
          <mxGeometry x="55" y="160" width="365" height="10" as="geometry" />
        </mxCell>
        <mxCell id="i0I8L3ptp_wrLTSy747K-13" value="" style="rounded=1;whiteSpace=wrap;html=1;fontSize=10;fillStyle=solid;fillColor=#dae8fc;strokeColor=#6c8ebf;" parent="1" vertex="1">
          <mxGeometry x="55" y="120" width="370" height="30" as="geometry" />
        </mxCell>
        <mxCell id="i0I8L3ptp_wrLTSy747K-14" value="Rate 1-5" style="text;html=1;strokeColor=none;fillColor=none;align=left;verticalAlign=middle;whiteSpace=wrap;rounded=0;fontSize=10;" parent="1" vertex="1">
          <mxGeometry x="65" y="125" width="60" height="20" as="geometry" />
        </mxCell>
        <mxCell id="i0I8L3ptp_wrLTSy747K-15" value="Product: Toy #1" style="text;html=1;strokeColor=none;fillColor=none;align=center;verticalAlign=middle;whiteSpace=wrap;rounded=0;fontSize=9;" parent="1" vertex="1">
          <mxGeometry x="55" y="190" width="85" height="30" as="geometry" />
        </mxCell>
      </root>
    </mxGraphModel>
  </diagram>
  <diagram name="Page-5" id="5D0asXRpmrzmWH7imncc">
    <mxGraphModel dx="574" dy="313" grid="1" gridSize="10" guides="1" tooltips="1" connect="1" arrows="1" fold="1" page="1" pageScale="1" pageWidth="850" pageHeight="1100" math="0" shadow="0">
      <root>
        <mxCell id="0" />
        <mxCell id="1" parent="0" />
        <mxCell id="nEKcSG6cVNgP2ceJhzVo-1" value="" style="rounded=0;whiteSpace=wrap;html=1;" vertex="1" parent="1">
          <mxGeometry x="40" y="40" width="400" height="200" as="geometry" />
        </mxCell>
        <mxCell id="nEKcSG6cVNgP2ceJhzVo-2" value="" style="rounded=1;whiteSpace=wrap;html=1;fontSize=10;fillStyle=solid;fillColor=#dae8fc;strokeColor=#6c8ebf;" vertex="1" parent="1">
          <mxGeometry x="55" y="80" width="370" height="30" as="geometry" />
        </mxCell>
        <mxCell id="nEKcSG6cVNgP2ceJhzVo-3" value="Toy #1" style="text;html=1;strokeColor=none;fillColor=none;align=left;verticalAlign=middle;whiteSpace=wrap;rounded=0;fontSize=10;" vertex="1" parent="1">
          <mxGeometry x="65" y="85" width="60" height="20" as="geometry" />
        </mxCell>
        <mxCell id="nEKcSG6cVNgP2ceJhzVo-5" value="Toy List" style="text;html=1;strokeColor=none;fillColor=none;align=center;verticalAlign=middle;whiteSpace=wrap;rounded=0;fontSize=9;" vertex="1" parent="1">
          <mxGeometry x="55" y="50" width="60" height="30" as="geometry" />
        </mxCell>
        <mxCell id="nEKcSG6cVNgP2ceJhzVo-7" value="" style="rounded=1;whiteSpace=wrap;html=1;fontSize=10;fillStyle=solid;fillColor=#dae8fc;strokeColor=#6c8ebf;" vertex="1" parent="1">
          <mxGeometry x="55" y="120" width="370" height="30" as="geometry" />
        </mxCell>
        <mxCell id="nEKcSG6cVNgP2ceJhzVo-10" value="" style="rounded=1;whiteSpace=wrap;html=1;fontSize=10;fillStyle=solid;fillColor=#dae8fc;strokeColor=#6c8ebf;" vertex="1" parent="1">
          <mxGeometry x="55" y="160" width="370" height="30" as="geometry" />
        </mxCell>
        <mxCell id="nEKcSG6cVNgP2ceJhzVo-12" value="Toy #1" style="text;html=1;strokeColor=none;fillColor=none;align=left;verticalAlign=middle;whiteSpace=wrap;rounded=0;fontSize=10;" vertex="1" parent="1">
          <mxGeometry x="65" y="125" width="60" height="20" as="geometry" />
        </mxCell>
        <mxCell id="nEKcSG6cVNgP2ceJhzVo-13" value="Toy #1" style="text;html=1;strokeColor=none;fillColor=none;align=left;verticalAlign=middle;whiteSpace=wrap;rounded=0;fontSize=10;" vertex="1" parent="1">
          <mxGeometry x="65" y="165" width="60" height="20" as="geometry" />
        </mxCell>
        <mxCell id="nEKcSG6cVNgP2ceJhzVo-15" value="Edit" style="text;html=1;strokeColor=none;fillColor=none;align=left;verticalAlign=middle;whiteSpace=wrap;rounded=0;fontSize=10;" vertex="1" parent="1">
          <mxGeometry x="360" y="85" width="60" height="20" as="geometry" />
        </mxCell>
        <mxCell id="nEKcSG6cVNgP2ceJhzVo-16" value="Edit" style="text;html=1;strokeColor=none;fillColor=none;align=left;verticalAlign=middle;whiteSpace=wrap;rounded=0;fontSize=10;" vertex="1" parent="1">
          <mxGeometry x="360" y="125" width="60" height="20" as="geometry" />
        </mxCell>
        <mxCell id="nEKcSG6cVNgP2ceJhzVo-17" value="Edit" style="text;html=1;strokeColor=none;fillColor=none;align=left;verticalAlign=middle;whiteSpace=wrap;rounded=0;fontSize=10;" vertex="1" parent="1">
          <mxGeometry x="360" y="165" width="60" height="20" as="geometry" />
        </mxCell>
        <mxCell id="nEKcSG6cVNgP2ceJhzVo-18" value="" style="line;strokeWidth=4;html=1;perimeter=backbonePerimeter;points=[];outlineConnect=0;fontSize=10;" vertex="1" parent="1">
          <mxGeometry x="55" y="210" width="365" height="10" as="geometry" />
        </mxCell>
      </root>
    </mxGraphModel>
  </diagram>
  <diagram name="Page-6" id="DB2ohlH0QI_zAS1_wgsW">
    <mxGraphModel dx="1434" dy="783" grid="1" gridSize="10" guides="1" tooltips="1" connect="1" arrows="1" fold="1" page="1" pageScale="1" pageWidth="850" pageHeight="1100" math="0" shadow="0">
      <root>
        <mxCell id="0" />
        <mxCell id="1" parent="0" />
        <mxCell id="-9zngVS-cRiriMul46jh-1" value="" style="rounded=0;whiteSpace=wrap;html=1;" parent="1" vertex="1">
          <mxGeometry x="40" y="40" width="400" height="200" as="geometry" />
        </mxCell>
        <mxCell id="-9zngVS-cRiriMul46jh-2" value="" style="rounded=1;whiteSpace=wrap;html=1;fontSize=10;fillStyle=solid;fillColor=#dae8fc;strokeColor=#6c8ebf;" parent="1" vertex="1">
          <mxGeometry x="55" y="80" width="370" height="30" as="geometry" />
        </mxCell>
        <mxCell id="-9zngVS-cRiriMul46jh-3" value="Menu" style="text;html=1;strokeColor=none;fillColor=none;align=left;verticalAlign=middle;whiteSpace=wrap;rounded=0;fontSize=10;" parent="1" vertex="1">
          <mxGeometry x="65" y="85" width="60" height="20" as="geometry" />
        </mxCell>
        <mxCell id="-9zngVS-cRiriMul46jh-4" value="Profile: User" style="text;html=1;strokeColor=none;fillColor=none;align=center;verticalAlign=middle;whiteSpace=wrap;rounded=0;fontSize=9;" parent="1" vertex="1">
          <mxGeometry x="55" y="50" width="60" height="30" as="geometry" />
        </mxCell>
        <mxCell id="-9zngVS-cRiriMul46jh-6" value="" style="rounded=1;whiteSpace=wrap;html=1;fontSize=10;fillStyle=solid;fillColor=#dae8fc;strokeColor=#6c8ebf;" parent="1" vertex="1">
          <mxGeometry x="55" y="120" width="370" height="70" as="geometry" />
        </mxCell>
        <mxCell id="-9zngVS-cRiriMul46jh-12" value="" style="line;strokeWidth=4;html=1;perimeter=backbonePerimeter;points=[];outlineConnect=0;fontSize=10;" parent="1" vertex="1">
          <mxGeometry x="55" y="210" width="365" height="10" as="geometry" />
        </mxCell>
        <mxCell id="-9zngVS-cRiriMul46jh-13" value="User Content" style="text;html=1;strokeColor=none;fillColor=none;align=left;verticalAlign=middle;whiteSpace=wrap;rounded=0;fontSize=10;" parent="1" vertex="1">
          <mxGeometry x="65" y="145" width="345" height="20" as="geometry" />
        </mxCell>
      </root>
    </mxGraphModel>
  </diagram>
  <diagram name="Page-7" id="yHKQTqhMae2mL4fWV-1n">
    <mxGraphModel dx="1434" dy="783" grid="1" gridSize="10" guides="1" tooltips="1" connect="1" arrows="1" fold="1" page="1" pageScale="1" pageWidth="850" pageHeight="1100" math="0" shadow="0">
      <root>
        <mxCell id="0" />
        <mxCell id="1" parent="0" />
        <mxCell id="vqZYTxGn6kxA9-OGYQRI-1" value="" style="rounded=0;whiteSpace=wrap;html=1;" parent="1" vertex="1">
          <mxGeometry x="40" y="40" width="400" height="200" as="geometry" />
        </mxCell>
        <mxCell id="vqZYTxGn6kxA9-OGYQRI-2" value="" style="rounded=1;whiteSpace=wrap;html=1;fontSize=10;fillStyle=solid;fillColor=#dae8fc;strokeColor=#6c8ebf;" parent="1" vertex="1">
          <mxGeometry x="55" y="80" width="370" height="30" as="geometry" />
        </mxCell>
        <mxCell id="vqZYTxGn6kxA9-OGYQRI-3" value="Options" style="text;html=1;strokeColor=none;fillColor=none;align=left;verticalAlign=middle;whiteSpace=wrap;rounded=0;fontSize=10;" parent="1" vertex="1">
          <mxGeometry x="65" y="85" width="60" height="20" as="geometry" />
        </mxCell>
        <mxCell id="vqZYTxGn6kxA9-OGYQRI-4" value="&lt;div align=&quot;left&quot;&gt;Product: Toy #1&lt;/div&gt;" style="text;html=1;strokeColor=none;fillColor=none;align=left;verticalAlign=middle;whiteSpace=wrap;rounded=0;fontSize=9;" parent="1" vertex="1">
          <mxGeometry x="55" y="50" width="375" height="30" as="geometry" />
        </mxCell>
        <mxCell id="vqZYTxGn6kxA9-OGYQRI-5" value="" style="rounded=1;whiteSpace=wrap;html=1;fontSize=10;fillStyle=solid;fillColor=#dae8fc;strokeColor=#6c8ebf;" parent="1" vertex="1">
          <mxGeometry x="55" y="120" width="370" height="70" as="geometry" />
        </mxCell>
        <mxCell id="vqZYTxGn6kxA9-OGYQRI-7" value="Product Content" style="text;html=1;strokeColor=none;fillColor=none;align=left;verticalAlign=middle;whiteSpace=wrap;rounded=0;fontSize=10;" parent="1" vertex="1">
          <mxGeometry x="65" y="145" width="345" height="20" as="geometry" />
        </mxCell>
        <mxCell id="vqZYTxGn6kxA9-OGYQRI-8" value="Edit" style="text;strokeColor=#6c8ebf;fillColor=#dae8fc;html=1;fontSize=10;fontStyle=1;verticalAlign=middle;align=center;rounded=1;" parent="1" vertex="1">
          <mxGeometry x="370" y="85" width="50" height="20" as="geometry" />
        </mxCell>
        <mxCell id="vqZYTxGn6kxA9-OGYQRI-9" value="Remove" style="text;strokeColor=#6c8ebf;fillColor=#dae8fc;html=1;fontSize=10;fontStyle=1;verticalAlign=middle;align=center;rounded=1;" parent="1" vertex="1">
          <mxGeometry x="310" y="85" width="50" height="20" as="geometry" />
        </mxCell>
        <mxCell id="vqZYTxGn6kxA9-OGYQRI-10" value="Save Information" style="text;strokeColor=#6c8ebf;fillColor=#dae8fc;html=1;fontSize=10;fontStyle=1;verticalAlign=middle;align=center;rounded=1;" parent="1" vertex="1">
          <mxGeometry x="320" y="200" width="105" height="30" as="geometry" />
        </mxCell>
      </root>
    </mxGraphModel>
  </diagram>
  <diagram name="Page-8" id="-m7mqw13P44oEEuZr_4x">
    <mxGraphModel dx="1434" dy="783" grid="1" gridSize="10" guides="1" tooltips="1" connect="1" arrows="1" fold="1" page="1" pageScale="1" pageWidth="850" pageHeight="1100" math="0" shadow="0">
      <root>
        <mxCell id="0" />
        <mxCell id="1" parent="0" />
        <mxCell id="lM-jitzRxsZ5gFp1JcEs-1" value="" style="rounded=0;whiteSpace=wrap;html=1;" parent="1" vertex="1">
          <mxGeometry x="40" y="40" width="400" height="200" as="geometry" />
        </mxCell>
        <mxCell id="lM-jitzRxsZ5gFp1JcEs-2" value="" style="rounded=1;whiteSpace=wrap;html=1;fontSize=10;fillStyle=solid;fillColor=#dae8fc;strokeColor=#6c8ebf;" parent="1" vertex="1">
          <mxGeometry x="55" y="80" width="370" height="30" as="geometry" />
        </mxCell>
        <mxCell id="lM-jitzRxsZ5gFp1JcEs-3" value="Toy #1" style="text;html=1;strokeColor=none;fillColor=none;align=left;verticalAlign=middle;whiteSpace=wrap;rounded=0;fontSize=10;" parent="1" vertex="1">
          <mxGeometry x="65" y="85" width="60" height="20" as="geometry" />
        </mxCell>
        <mxCell id="lM-jitzRxsZ5gFp1JcEs-4" value="Order History" style="text;html=1;strokeColor=none;fillColor=none;align=center;verticalAlign=middle;whiteSpace=wrap;rounded=0;fontSize=9;" parent="1" vertex="1">
          <mxGeometry x="55" y="50" width="85" height="30" as="geometry" />
        </mxCell>
        <mxCell id="lM-jitzRxsZ5gFp1JcEs-5" value="" style="rounded=1;whiteSpace=wrap;html=1;fontSize=10;fillStyle=solid;fillColor=#dae8fc;strokeColor=#6c8ebf;" parent="1" vertex="1">
          <mxGeometry x="55" y="120" width="370" height="30" as="geometry" />
        </mxCell>
        <mxCell id="lM-jitzRxsZ5gFp1JcEs-6" value="" style="rounded=1;whiteSpace=wrap;html=1;fontSize=10;fillStyle=solid;fillColor=#dae8fc;strokeColor=#6c8ebf;" parent="1" vertex="1">
          <mxGeometry x="55" y="160" width="370" height="30" as="geometry" />
        </mxCell>
        <mxCell id="lM-jitzRxsZ5gFp1JcEs-7" value="Toy #1" style="text;html=1;strokeColor=none;fillColor=none;align=left;verticalAlign=middle;whiteSpace=wrap;rounded=0;fontSize=10;" parent="1" vertex="1">
          <mxGeometry x="65" y="125" width="60" height="20" as="geometry" />
        </mxCell>
        <mxCell id="lM-jitzRxsZ5gFp1JcEs-8" value="Toy #1" style="text;html=1;strokeColor=none;fillColor=none;align=left;verticalAlign=middle;whiteSpace=wrap;rounded=0;fontSize=10;" parent="1" vertex="1">
          <mxGeometry x="65" y="165" width="60" height="20" as="geometry" />
        </mxCell>
        <mxCell id="lM-jitzRxsZ5gFp1JcEs-9" value="View" style="text;html=1;strokeColor=none;fillColor=none;align=left;verticalAlign=middle;whiteSpace=wrap;rounded=0;fontSize=10;" parent="1" vertex="1">
          <mxGeometry x="360" y="85" width="60" height="20" as="geometry" />
        </mxCell>
        <mxCell id="lM-jitzRxsZ5gFp1JcEs-12" value="" style="line;strokeWidth=4;html=1;perimeter=backbonePerimeter;points=[];outlineConnect=0;fontSize=10;" parent="1" vertex="1">
          <mxGeometry x="55" y="210" width="365" height="10" as="geometry" />
        </mxCell>
        <mxCell id="lM-jitzRxsZ5gFp1JcEs-13" value="View" style="text;html=1;strokeColor=none;fillColor=none;align=left;verticalAlign=middle;whiteSpace=wrap;rounded=0;fontSize=10;" parent="1" vertex="1">
          <mxGeometry x="360" y="125" width="60" height="20" as="geometry" />
        </mxCell>
        <mxCell id="lM-jitzRxsZ5gFp1JcEs-14" value="View" style="text;html=1;strokeColor=none;fillColor=none;align=left;verticalAlign=middle;whiteSpace=wrap;rounded=0;fontSize=10;" parent="1" vertex="1">
          <mxGeometry x="360" y="165" width="60" height="20" as="geometry" />
        </mxCell>
      </root>
    </mxGraphModel>
  </diagram>
  <diagram name="Page-9" id="rg6dwAWceeVjwHNf_XiF">
    <mxGraphModel dx="574" dy="313" grid="1" gridSize="10" guides="1" tooltips="1" connect="1" arrows="1" fold="1" page="1" pageScale="1" pageWidth="850" pageHeight="1100" math="0" shadow="0">
      <root>
        <mxCell id="0" />
        <mxCell id="1" parent="0" />
        <mxCell id="mEvcyGwfhJWyieT50fhE-1" value="" style="rounded=0;whiteSpace=wrap;html=1;" vertex="1" parent="1">
          <mxGeometry x="40" y="40" width="400" height="200" as="geometry" />
        </mxCell>
        <mxCell id="mEvcyGwfhJWyieT50fhE-2" value="" style="rounded=1;whiteSpace=wrap;html=1;fontSize=10;fillStyle=solid;fillColor=#dae8fc;strokeColor=#6c8ebf;" vertex="1" parent="1">
          <mxGeometry x="55" y="80" width="370" height="30" as="geometry" />
        </mxCell>
        <mxCell id="mEvcyGwfhJWyieT50fhE-3" value="Title: Toy #1" style="text;html=1;strokeColor=none;fillColor=none;align=left;verticalAlign=middle;whiteSpace=wrap;rounded=0;fontSize=10;" vertex="1" parent="1">
          <mxGeometry x="65" y="85" width="285" height="20" as="geometry" />
        </mxCell>
        <mxCell id="mEvcyGwfhJWyieT50fhE-4" value="Order: 12-5453-Toy#1" style="text;html=1;strokeColor=none;fillColor=none;align=center;verticalAlign=middle;whiteSpace=wrap;rounded=0;fontSize=9;" vertex="1" parent="1">
          <mxGeometry x="55" y="50" width="105" height="30" as="geometry" />
        </mxCell>
        <mxCell id="mEvcyGwfhJWyieT50fhE-5" value="" style="rounded=1;whiteSpace=wrap;html=1;fontSize=10;fillStyle=solid;fillColor=#dae8fc;strokeColor=#6c8ebf;" vertex="1" parent="1">
          <mxGeometry x="55" y="160" width="370" height="30" as="geometry" />
        </mxCell>
        <mxCell id="mEvcyGwfhJWyieT50fhE-6" value="" style="rounded=1;whiteSpace=wrap;html=1;fontSize=10;fillStyle=solid;fillColor=#dae8fc;strokeColor=#6c8ebf;" vertex="1" parent="1">
          <mxGeometry x="360" y="200" width="65" height="20" as="geometry" />
        </mxCell>
        <mxCell id="mEvcyGwfhJWyieT50fhE-7" value="Total Price" style="text;html=1;strokeColor=none;fillColor=none;align=left;verticalAlign=middle;whiteSpace=wrap;rounded=0;fontSize=10;" vertex="1" parent="1">
          <mxGeometry x="65" y="165" width="275" height="20" as="geometry" />
        </mxCell>
        <mxCell id="mEvcyGwfhJWyieT50fhE-11" value="&lt;div align=&quot;right&quot;&gt;34.54$&lt;/div&gt;" style="text;html=1;strokeColor=none;fillColor=none;align=right;verticalAlign=middle;whiteSpace=wrap;rounded=0;fontSize=10;" vertex="1" parent="1">
          <mxGeometry x="360" y="165" width="60" height="20" as="geometry" />
        </mxCell>
        <mxCell id="mEvcyGwfhJWyieT50fhE-12" value="&lt;div align=&quot;center&quot;&gt;Return&lt;/div&gt;" style="text;html=1;strokeColor=none;fillColor=none;align=center;verticalAlign=middle;whiteSpace=wrap;rounded=0;fontSize=10;" vertex="1" parent="1">
          <mxGeometry x="362.5" y="205" width="60" height="10" as="geometry" />
        </mxCell>
        <mxCell id="mEvcyGwfhJWyieT50fhE-13" value="" style="rounded=1;whiteSpace=wrap;html=1;fontSize=10;fillStyle=solid;fillColor=#dae8fc;strokeColor=#6c8ebf;" vertex="1" parent="1">
          <mxGeometry x="55" y="120" width="370" height="30" as="geometry" />
        </mxCell>
        <mxCell id="mEvcyGwfhJWyieT50fhE-14" value="Shipping Location: Country, Street, City, ZIP Postal" style="text;html=1;strokeColor=none;fillColor=none;align=left;verticalAlign=middle;whiteSpace=wrap;rounded=0;fontSize=10;" vertex="1" parent="1">
          <mxGeometry x="65" y="125" width="285" height="20" as="geometry" />
        </mxCell>
      </root>
    </mxGraphModel>
  </diagram>
  <diagram name="Page-10" id="PYsUO3LGUiEDuhpbPRv1">
    <mxGraphModel dx="819" dy="447" grid="1" gridSize="10" guides="1" tooltips="1" connect="1" arrows="1" fold="1" page="1" pageScale="1" pageWidth="850" pageHeight="1100" math="0" shadow="0">
      <root>
        <mxCell id="0" />
        <mxCell id="1" parent="0" />
        <mxCell id="u_prBf5ypqxjFEOOqEy4-1" value="" style="rounded=0;whiteSpace=wrap;html=1;" vertex="1" parent="1">
          <mxGeometry x="40" y="40" width="400" height="200" as="geometry" />
        </mxCell>
        <mxCell id="u_prBf5ypqxjFEOOqEy4-2" value="" style="rounded=1;whiteSpace=wrap;html=1;fontSize=10;fillStyle=solid;fillColor=#dae8fc;strokeColor=#6c8ebf;" vertex="1" parent="1">
          <mxGeometry x="50" y="50" width="370" height="30" as="geometry" />
        </mxCell>
        <mxCell id="u_prBf5ypqxjFEOOqEy4-4" value="&lt;div align=&quot;left&quot;&gt;Search:&lt;/div&gt;" style="text;html=1;strokeColor=none;fillColor=none;align=left;verticalAlign=middle;whiteSpace=wrap;rounded=0;fontSize=9;" vertex="1" parent="1">
          <mxGeometry x="55" y="50" width="105" height="30" as="geometry" />
        </mxCell>
        <mxCell id="u_prBf5ypqxjFEOOqEy4-10" value="" style="rounded=1;whiteSpace=wrap;html=1;fontSize=10;fillStyle=solid;fillColor=#dae8fc;strokeColor=#6c8ebf;" vertex="1" parent="1">
          <mxGeometry x="150" y="90" width="270" height="20" as="geometry" />
        </mxCell>
        <mxCell id="u_prBf5ypqxjFEOOqEy4-12" value="" style="rounded=1;whiteSpace=wrap;html=1;fontSize=10;fillStyle=solid;fillColor=#dae8fc;strokeColor=#6c8ebf;" vertex="1" parent="1">
          <mxGeometry x="150" y="120" width="270" height="20" as="geometry" />
        </mxCell>
        <mxCell id="u_prBf5ypqxjFEOOqEy4-13" value="" style="rounded=1;whiteSpace=wrap;html=1;fontSize=10;fillStyle=solid;fillColor=#dae8fc;strokeColor=#6c8ebf;" vertex="1" parent="1">
          <mxGeometry x="150" y="150" width="270" height="20" as="geometry" />
        </mxCell>
        <mxCell id="u_prBf5ypqxjFEOOqEy4-14" value="" style="rounded=1;whiteSpace=wrap;html=1;fontSize=10;fillStyle=solid;fillColor=#dae8fc;strokeColor=#6c8ebf;" vertex="1" parent="1">
          <mxGeometry x="150" y="180" width="270" height="20" as="geometry" />
        </mxCell>
        <mxCell id="u_prBf5ypqxjFEOOqEy4-15" value="" style="rounded=1;whiteSpace=wrap;html=1;fontSize=10;fillStyle=solid;fillColor=#dae8fc;strokeColor=#6c8ebf;" vertex="1" parent="1">
          <mxGeometry x="150" y="210" width="270" height="20" as="geometry" />
        </mxCell>
        <mxCell id="u_prBf5ypqxjFEOOqEy4-16" value="Toy #1" style="text;html=1;strokeColor=none;fillColor=none;align=left;verticalAlign=middle;whiteSpace=wrap;rounded=0;fontSize=9;" vertex="1" parent="1">
          <mxGeometry x="160" y="90" width="105" height="20" as="geometry" />
        </mxCell>
        <mxCell id="u_prBf5ypqxjFEOOqEy4-17" value="Toy #1" style="text;html=1;strokeColor=none;fillColor=none;align=left;verticalAlign=middle;whiteSpace=wrap;rounded=0;fontSize=9;" vertex="1" parent="1">
          <mxGeometry x="160" y="120" width="110" height="20" as="geometry" />
        </mxCell>
        <mxCell id="u_prBf5ypqxjFEOOqEy4-18" value="Toy #1" style="text;html=1;strokeColor=none;fillColor=none;align=left;verticalAlign=middle;whiteSpace=wrap;rounded=0;fontSize=9;" vertex="1" parent="1">
          <mxGeometry x="160" y="150" width="105" height="20" as="geometry" />
        </mxCell>
        <mxCell id="u_prBf5ypqxjFEOOqEy4-19" value="Toy #1" style="text;html=1;strokeColor=none;fillColor=none;align=left;verticalAlign=middle;whiteSpace=wrap;rounded=0;fontSize=9;" vertex="1" parent="1">
          <mxGeometry x="160" y="180" width="105" height="20" as="geometry" />
        </mxCell>
        <mxCell id="u_prBf5ypqxjFEOOqEy4-20" value="Toy #1" style="text;html=1;strokeColor=none;fillColor=none;align=left;verticalAlign=middle;whiteSpace=wrap;rounded=0;fontSize=9;" vertex="1" parent="1">
          <mxGeometry x="160" y="210" width="105" height="20" as="geometry" />
        </mxCell>
        <mxCell id="u_prBf5ypqxjFEOOqEy4-21" value="&lt;div align=&quot;center&quot;&gt;view&lt;/div&gt;" style="text;html=1;strokeColor=#6c8ebf;fillColor=#dae8fc;align=center;verticalAlign=middle;whiteSpace=wrap;rounded=1;fontSize=9;" vertex="1" parent="1">
          <mxGeometry x="380" y="95" width="35" height="10" as="geometry" />
        </mxCell>
        <mxCell id="u_prBf5ypqxjFEOOqEy4-22" value="&lt;div align=&quot;center&quot;&gt;view&lt;/div&gt;" style="text;html=1;strokeColor=#6c8ebf;fillColor=#dae8fc;align=center;verticalAlign=middle;whiteSpace=wrap;rounded=1;fontSize=9;" vertex="1" parent="1">
          <mxGeometry x="380" y="125" width="35" height="10" as="geometry" />
        </mxCell>
        <mxCell id="u_prBf5ypqxjFEOOqEy4-23" value="&lt;div align=&quot;center&quot;&gt;view&lt;/div&gt;" style="text;html=1;strokeColor=#6c8ebf;fillColor=#dae8fc;align=center;verticalAlign=middle;whiteSpace=wrap;rounded=1;fontSize=9;" vertex="1" parent="1">
          <mxGeometry x="380" y="155" width="35" height="10" as="geometry" />
        </mxCell>
        <mxCell id="u_prBf5ypqxjFEOOqEy4-24" value="&lt;div align=&quot;center&quot;&gt;view&lt;/div&gt;" style="text;html=1;strokeColor=#6c8ebf;fillColor=#dae8fc;align=center;verticalAlign=middle;whiteSpace=wrap;rounded=1;fontSize=9;" vertex="1" parent="1">
          <mxGeometry x="380" y="185" width="35" height="10" as="geometry" />
        </mxCell>
        <mxCell id="u_prBf5ypqxjFEOOqEy4-25" value="&lt;div align=&quot;center&quot;&gt;view&lt;/div&gt;" style="text;html=1;strokeColor=#6c8ebf;fillColor=#dae8fc;align=center;verticalAlign=middle;whiteSpace=wrap;rounded=1;fontSize=9;" vertex="1" parent="1">
          <mxGeometry x="380" y="215" width="35" height="10" as="geometry" />
        </mxCell>
        <mxCell id="u_prBf5ypqxjFEOOqEy4-27" value="" style="rounded=1;whiteSpace=wrap;html=1;fontSize=10;fillStyle=solid;fillColor=#dae8fc;strokeColor=#6c8ebf;" vertex="1" parent="1">
          <mxGeometry x="50" y="90" width="85" height="140" as="geometry" />
        </mxCell>
        <mxCell id="u_prBf5ypqxjFEOOqEy4-45" value="Filter:" style="text;html=1;strokeColor=none;fillColor=none;align=left;verticalAlign=middle;whiteSpace=wrap;rounded=0;fontSize=9;" vertex="1" parent="1">
          <mxGeometry x="57.5" y="95" width="70" height="15" as="geometry" />
        </mxCell>
        <mxCell id="u_prBf5ypqxjFEOOqEy4-48" value="Price Range" style="text;html=1;strokeColor=none;fillColor=none;align=left;verticalAlign=middle;whiteSpace=wrap;rounded=0;fontSize=9;" vertex="1" parent="1">
          <mxGeometry x="57.5" y="110" width="70" height="15" as="geometry" />
        </mxCell>
        <mxCell id="u_prBf5ypqxjFEOOqEy4-49" value="&lt;blockquote&gt;0-250$&lt;/blockquote&gt;" style="text;html=1;strokeColor=none;fillColor=none;align=left;verticalAlign=middle;whiteSpace=wrap;rounded=0;fontSize=9;" vertex="1" parent="1">
          <mxGeometry x="57.5" y="125" width="70" height="15" as="geometry" />
        </mxCell>
        <mxCell id="u_prBf5ypqxjFEOOqEy4-50" value="Brand" style="text;html=1;strokeColor=none;fillColor=none;align=left;verticalAlign=middle;whiteSpace=wrap;rounded=0;fontSize=9;" vertex="1" parent="1">
          <mxGeometry x="57.5" y="140" width="70" height="15" as="geometry" />
        </mxCell>
        <mxCell id="u_prBf5ypqxjFEOOqEy4-51" value="Brand#1" style="text;html=1;strokeColor=none;fillColor=none;align=right;verticalAlign=middle;whiteSpace=wrap;rounded=0;fontSize=9;" vertex="1" parent="1">
          <mxGeometry x="57.5" y="155" width="70" height="15" as="geometry" />
        </mxCell>
        <mxCell id="u_prBf5ypqxjFEOOqEy4-52" value="&lt;div align=&quot;right&quot;&gt;Brand#2&lt;/div&gt;" style="text;html=1;strokeColor=none;fillColor=none;align=right;verticalAlign=middle;whiteSpace=wrap;rounded=0;fontSize=9;" vertex="1" parent="1">
          <mxGeometry x="57.5" y="170" width="70" height="15" as="geometry" />
        </mxCell>
        <mxCell id="u_prBf5ypqxjFEOOqEy4-53" value="&lt;div align=&quot;right&quot;&gt;Brand#3&lt;/div&gt;" style="text;html=1;strokeColor=none;fillColor=none;align=right;verticalAlign=middle;whiteSpace=wrap;rounded=0;fontSize=9;" vertex="1" parent="1">
          <mxGeometry x="57.5" y="185" width="70" height="15" as="geometry" />
        </mxCell>
      </root>
    </mxGraphModel>
  </diagram>
  <diagram name="Page-11" id="16bzNlXdcEd5ZWpRDMf4">
    <mxGraphModel dx="1434" dy="783" grid="1" gridSize="10" guides="1" tooltips="1" connect="1" arrows="1" fold="1" page="1" pageScale="1" pageWidth="850" pageHeight="1100" math="0" shadow="0">
      <root>
        <mxCell id="0" />
        <mxCell id="1" parent="0" />
        <mxCell id="xPiZmInQfeZ-QCK_jhkq-1" value="" style="rounded=0;whiteSpace=wrap;html=1;" parent="1" vertex="1">
          <mxGeometry x="40" y="40" width="400" height="200" as="geometry" />
        </mxCell>
        <mxCell id="xPiZmInQfeZ-QCK_jhkq-2" value="" style="rounded=1;whiteSpace=wrap;html=1;fontSize=10;fillStyle=solid;fillColor=#dae8fc;strokeColor=#6c8ebf;" parent="1" vertex="1">
          <mxGeometry x="55" y="80" width="370" height="30" as="geometry" />
        </mxCell>
        <mxCell id="xPiZmInQfeZ-QCK_jhkq-4" value="Shipping Address" style="text;html=1;strokeColor=none;fillColor=none;align=center;verticalAlign=middle;whiteSpace=wrap;rounded=0;fontSize=9;" parent="1" vertex="1">
          <mxGeometry x="55" y="50" width="105" height="30" as="geometry" />
        </mxCell>
        <mxCell id="xPiZmInQfeZ-QCK_jhkq-5" value="" style="rounded=1;whiteSpace=wrap;html=1;fontSize=10;fillStyle=solid;fillColor=#dae8fc;strokeColor=#6c8ebf;" parent="1" vertex="1">
          <mxGeometry x="55" y="120" width="370" height="70" as="geometry" />
        </mxCell>
        <mxCell id="xPiZmInQfeZ-QCK_jhkq-6" value="" style="rounded=1;whiteSpace=wrap;html=1;fontSize=10;fillStyle=solid;fillColor=#dae8fc;strokeColor=#6c8ebf;" parent="1" vertex="1">
          <mxGeometry x="360" y="200" width="65" height="20" as="geometry" />
        </mxCell>
        <mxCell id="xPiZmInQfeZ-QCK_jhkq-9" value="continue" style="text;html=1;strokeColor=none;fillColor=none;align=center;verticalAlign=middle;whiteSpace=wrap;rounded=0;fontSize=10;" parent="1" vertex="1">
          <mxGeometry x="362.5" y="205" width="60" height="10" as="geometry" />
        </mxCell>
        <mxCell id="xPiZmInQfeZ-QCK_jhkq-11" value="Shipping Location: Country, Street, City, ZIP Postal" style="text;html=1;strokeColor=none;fillColor=none;align=left;verticalAlign=middle;whiteSpace=wrap;rounded=0;fontSize=10;" parent="1" vertex="1">
          <mxGeometry x="65" y="85" width="285" height="20" as="geometry" />
        </mxCell>
        <mxCell id="xPiZmInQfeZ-QCK_jhkq-12" value="&lt;div style=&quot;font-size: 8px;&quot; align=&quot;left&quot;&gt;&lt;ul&gt;&lt;li&gt;Pick Up In Store&lt;br&gt;&lt;/li&gt;&lt;li&gt;Pay After&lt;/li&gt;&lt;li&gt;Credit Card&lt;br&gt;&lt;/li&gt;&lt;/ul&gt;&lt;/div&gt;" style="text;strokeColor=none;fillColor=none;html=1;whiteSpace=wrap;verticalAlign=middle;overflow=hidden;fontSize=10;align=left;" parent="1" vertex="1">
          <mxGeometry x="60" y="130" width="100" height="50" as="geometry" />
        </mxCell>
        <mxCell id="xPiZmInQfeZ-QCK_jhkq-13" value="&lt;div align=&quot;left&quot;&gt;Method:&lt;/div&gt;" style="text;html=1;strokeColor=none;fillColor=none;align=left;verticalAlign=middle;whiteSpace=wrap;rounded=0;fontSize=9;" parent="1" vertex="1">
          <mxGeometry x="65" y="120" width="105" height="20" as="geometry" />
        </mxCell>
      </root>
    </mxGraphModel>
  </diagram>
  <diagram name="Page-12" id="H5FfLtYsvp4js_QAAUgf">
    <mxGraphModel dx="1434" dy="783" grid="1" gridSize="10" guides="1" tooltips="1" connect="1" arrows="1" fold="1" page="1" pageScale="1" pageWidth="850" pageHeight="1100" math="0" shadow="0">
      <root>
        <mxCell id="0" />
        <mxCell id="1" parent="0" />
        <mxCell id="5-W_5atoswPXEoZojlTY-1" value="" style="rounded=0;whiteSpace=wrap;html=1;" parent="1" vertex="1">
          <mxGeometry x="40" y="40" width="400" height="200" as="geometry" />
        </mxCell>
        <mxCell id="5-W_5atoswPXEoZojlTY-2" value="" style="rounded=1;whiteSpace=wrap;html=1;fontSize=10;fillStyle=solid;fillColor=#dae8fc;strokeColor=#6c8ebf;" parent="1" vertex="1">
          <mxGeometry x="55" y="80" width="370" height="30" as="geometry" />
        </mxCell>
        <mxCell id="5-W_5atoswPXEoZojlTY-3" value="Toy #1" style="text;html=1;strokeColor=none;fillColor=none;align=left;verticalAlign=middle;whiteSpace=wrap;rounded=0;fontSize=10;" parent="1" vertex="1">
          <mxGeometry x="65" y="85" width="60" height="20" as="geometry" />
        </mxCell>
        <mxCell id="5-W_5atoswPXEoZojlTY-4" value="&lt;div align=&quot;left&quot;&gt;Wish List&lt;/div&gt;" style="text;html=1;strokeColor=none;fillColor=none;align=left;verticalAlign=middle;whiteSpace=wrap;rounded=0;fontSize=9;" parent="1" vertex="1">
          <mxGeometry x="55" y="50" width="85" height="30" as="geometry" />
        </mxCell>
        <mxCell id="5-W_5atoswPXEoZojlTY-5" value="" style="rounded=1;whiteSpace=wrap;html=1;fontSize=10;fillStyle=solid;fillColor=#dae8fc;strokeColor=#6c8ebf;" parent="1" vertex="1">
          <mxGeometry x="55" y="120" width="370" height="30" as="geometry" />
        </mxCell>
        <mxCell id="5-W_5atoswPXEoZojlTY-6" value="" style="rounded=1;whiteSpace=wrap;html=1;fontSize=10;fillStyle=solid;fillColor=#dae8fc;strokeColor=#6c8ebf;" parent="1" vertex="1">
          <mxGeometry x="55" y="160" width="370" height="30" as="geometry" />
        </mxCell>
        <mxCell id="5-W_5atoswPXEoZojlTY-7" value="Toy #1" style="text;html=1;strokeColor=none;fillColor=none;align=left;verticalAlign=middle;whiteSpace=wrap;rounded=0;fontSize=10;" parent="1" vertex="1">
          <mxGeometry x="65" y="125" width="60" height="20" as="geometry" />
        </mxCell>
        <mxCell id="5-W_5atoswPXEoZojlTY-8" value="Toy #1" style="text;html=1;strokeColor=none;fillColor=none;align=left;verticalAlign=middle;whiteSpace=wrap;rounded=0;fontSize=10;" parent="1" vertex="1">
          <mxGeometry x="65" y="165" width="60" height="20" as="geometry" />
        </mxCell>
        <mxCell id="5-W_5atoswPXEoZojlTY-9" value="View" style="text;html=1;strokeColor=none;fillColor=none;align=left;verticalAlign=middle;whiteSpace=wrap;rounded=0;fontSize=10;" parent="1" vertex="1">
          <mxGeometry x="360" y="85" width="60" height="20" as="geometry" />
        </mxCell>
        <mxCell id="5-W_5atoswPXEoZojlTY-10" value="" style="line;strokeWidth=4;html=1;perimeter=backbonePerimeter;points=[];outlineConnect=0;fontSize=10;" parent="1" vertex="1">
          <mxGeometry x="55" y="210" width="365" height="10" as="geometry" />
        </mxCell>
        <mxCell id="5-W_5atoswPXEoZojlTY-11" value="View" style="text;html=1;strokeColor=none;fillColor=none;align=left;verticalAlign=middle;whiteSpace=wrap;rounded=0;fontSize=10;" parent="1" vertex="1">
          <mxGeometry x="360" y="125" width="60" height="20" as="geometry" />
        </mxCell>
        <mxCell id="5-W_5atoswPXEoZojlTY-12" value="View" style="text;html=1;strokeColor=none;fillColor=none;align=left;verticalAlign=middle;whiteSpace=wrap;rounded=0;fontSize=10;" parent="1" vertex="1">
          <mxGeometry x="360" y="165" width="60" height="20" as="geometry" />
        </mxCell>
        <mxCell id="5-W_5atoswPXEoZojlTY-13" value="Remove" style="text;html=1;strokeColor=none;fillColor=none;align=left;verticalAlign=middle;whiteSpace=wrap;rounded=0;fontSize=10;" parent="1" vertex="1">
          <mxGeometry x="300" y="85" width="60" height="20" as="geometry" />
        </mxCell>
        <mxCell id="5-W_5atoswPXEoZojlTY-14" value="Remove" style="text;html=1;strokeColor=none;fillColor=none;align=left;verticalAlign=middle;whiteSpace=wrap;rounded=0;fontSize=10;" parent="1" vertex="1">
          <mxGeometry x="300" y="125" width="60" height="20" as="geometry" />
        </mxCell>
        <mxCell id="5-W_5atoswPXEoZojlTY-15" value="Remove" style="text;html=1;strokeColor=none;fillColor=none;align=left;verticalAlign=middle;whiteSpace=wrap;rounded=0;fontSize=10;" parent="1" vertex="1">
          <mxGeometry x="300" y="165" width="60" height="20" as="geometry" />
        </mxCell>
      </root>
    </mxGraphModel>
  </diagram>
  <diagram name="Page-13" id="6CSsp_K_5VjRiCrZYXlI">
    <mxGraphModel dx="1434" dy="783" grid="1" gridSize="10" guides="1" tooltips="1" connect="1" arrows="1" fold="1" page="1" pageScale="1" pageWidth="850" pageHeight="1100" math="0" shadow="0">
      <root>
        <mxCell id="0" />
        <mxCell id="1" parent="0" />
        <mxCell id="ZOXh57hS4p0GlnMOxxNf-1" value="" style="rounded=0;whiteSpace=wrap;html=1;" parent="1" vertex="1">
          <mxGeometry x="40" y="40" width="400" height="210" as="geometry" />
        </mxCell>
        <mxCell id="ZOXh57hS4p0GlnMOxxNf-2" value="" style="rounded=1;whiteSpace=wrap;html=1;fontSize=10;fillStyle=solid;fillColor=#dae8fc;strokeColor=#6c8ebf;" parent="1" vertex="1">
          <mxGeometry x="57.5" y="80" width="370" height="30" as="geometry" />
        </mxCell>
        <mxCell id="ZOXh57hS4p0GlnMOxxNf-4" value="Categories:" style="text;html=1;strokeColor=none;fillColor=none;align=left;verticalAlign=middle;whiteSpace=wrap;rounded=0;fontSize=9;" parent="1" vertex="1">
          <mxGeometry x="55" y="50" width="375" height="30" as="geometry" />
        </mxCell>
        <mxCell id="ZOXh57hS4p0GlnMOxxNf-7" value="Popular" style="text;strokeColor=#6c8ebf;fillColor=#dae8fc;html=1;fontSize=10;fontStyle=1;verticalAlign=middle;align=center;rounded=1;" parent="1" vertex="1">
          <mxGeometry x="367.5" y="85" width="50" height="20" as="geometry" />
        </mxCell>
        <mxCell id="ZOXh57hS4p0GlnMOxxNf-8" value="Price" style="text;strokeColor=#6c8ebf;fillColor=#dae8fc;html=1;fontSize=10;fontStyle=1;verticalAlign=middle;align=center;rounded=1;" parent="1" vertex="1">
          <mxGeometry x="307.5" y="85" width="50" height="20" as="geometry" />
        </mxCell>
        <mxCell id="ZOXh57hS4p0GlnMOxxNf-10" value="Girls" style="text;strokeColor=#6c8ebf;fillColor=#dae8fc;html=1;fontSize=10;fontStyle=1;verticalAlign=middle;align=center;rounded=1;" parent="1" vertex="1">
          <mxGeometry x="127.5" y="85" width="50" height="20" as="geometry" />
        </mxCell>
        <mxCell id="ZOXh57hS4p0GlnMOxxNf-11" value="Boys" style="text;strokeColor=#6c8ebf;fillColor=#dae8fc;html=1;fontSize=10;fontStyle=1;verticalAlign=middle;align=center;rounded=1;" parent="1" vertex="1">
          <mxGeometry x="67.5" y="85" width="50" height="20" as="geometry" />
        </mxCell>
        <mxCell id="ZOXh57hS4p0GlnMOxxNf-12" value="Age" style="text;strokeColor=#6c8ebf;fillColor=#dae8fc;html=1;fontSize=10;fontStyle=1;verticalAlign=middle;align=center;rounded=1;" parent="1" vertex="1">
          <mxGeometry x="187.5" y="85" width="50" height="20" as="geometry" />
        </mxCell>
        <mxCell id="ZOXh57hS4p0GlnMOxxNf-13" value="Brand" style="text;strokeColor=#6c8ebf;fillColor=#dae8fc;html=1;fontSize=10;fontStyle=1;verticalAlign=middle;align=center;rounded=1;" parent="1" vertex="1">
          <mxGeometry x="247.5" y="85" width="50" height="20" as="geometry" />
        </mxCell>
        <mxCell id="ZOXh57hS4p0GlnMOxxNf-15" value="&lt;div align=&quot;center&quot;&gt;Content&lt;/div&gt;" style="text;html=1;strokeColor=#6c8ebf;fillColor=#dae8fc;align=center;verticalAlign=middle;whiteSpace=wrap;rounded=0;fontSize=8;" parent="1" vertex="1">
          <mxGeometry x="52.5" y="120" width="375" height="110" as="geometry" />
        </mxCell>
      </root>
    </mxGraphModel>
  </diagram>
  <diagram name="Page-14" id="k5-1ufeH2wMZ0Pt3UWge">
    <mxGraphModel dx="1434" dy="783" grid="1" gridSize="10" guides="1" tooltips="1" connect="1" arrows="1" fold="1" page="1" pageScale="1" pageWidth="850" pageHeight="1100" math="0" shadow="0">
      <root>
        <mxCell id="0" />
        <mxCell id="1" parent="0" />
        <mxCell id="ZH2C90KEbSrW8FDwR5a0-1" value="" style="rounded=0;whiteSpace=wrap;html=1;" parent="1" vertex="1">
          <mxGeometry x="40" y="40" width="400" height="200" as="geometry" />
        </mxCell>
        <mxCell id="ZH2C90KEbSrW8FDwR5a0-2" value="" style="rounded=1;whiteSpace=wrap;html=1;fontSize=10;fillStyle=solid;fillColor=#dae8fc;strokeColor=#6c8ebf;" parent="1" vertex="1">
          <mxGeometry x="55" y="80" width="370" height="30" as="geometry" />
        </mxCell>
        <mxCell id="ZH2C90KEbSrW8FDwR5a0-3" value="Brands #1" style="text;html=1;strokeColor=none;fillColor=none;align=left;verticalAlign=middle;whiteSpace=wrap;rounded=0;fontSize=10;" parent="1" vertex="1">
          <mxGeometry x="65" y="85" width="60" height="20" as="geometry" />
        </mxCell>
        <mxCell id="ZH2C90KEbSrW8FDwR5a0-4" value="Brands" style="text;html=1;strokeColor=none;fillColor=none;align=left;verticalAlign=middle;whiteSpace=wrap;rounded=0;fontSize=9;" parent="1" vertex="1">
          <mxGeometry x="55" y="50" width="85" height="30" as="geometry" />
        </mxCell>
        <mxCell id="ZH2C90KEbSrW8FDwR5a0-5" value="" style="rounded=1;whiteSpace=wrap;html=1;fontSize=10;fillStyle=solid;fillColor=#dae8fc;strokeColor=#6c8ebf;" parent="1" vertex="1">
          <mxGeometry x="55" y="120" width="370" height="30" as="geometry" />
        </mxCell>
        <mxCell id="ZH2C90KEbSrW8FDwR5a0-6" value="" style="rounded=1;whiteSpace=wrap;html=1;fontSize=10;fillStyle=solid;fillColor=#dae8fc;strokeColor=#6c8ebf;" parent="1" vertex="1">
          <mxGeometry x="55" y="160" width="370" height="30" as="geometry" />
        </mxCell>
        <mxCell id="ZH2C90KEbSrW8FDwR5a0-9" value="View" style="text;html=1;strokeColor=none;fillColor=none;align=left;verticalAlign=middle;whiteSpace=wrap;rounded=0;fontSize=10;" parent="1" vertex="1">
          <mxGeometry x="360" y="85" width="60" height="20" as="geometry" />
        </mxCell>
        <mxCell id="ZH2C90KEbSrW8FDwR5a0-10" value="" style="line;strokeWidth=4;html=1;perimeter=backbonePerimeter;points=[];outlineConnect=0;fontSize=10;" parent="1" vertex="1">
          <mxGeometry x="55" y="210" width="365" height="10" as="geometry" />
        </mxCell>
        <mxCell id="ZH2C90KEbSrW8FDwR5a0-11" value="View" style="text;html=1;strokeColor=none;fillColor=none;align=left;verticalAlign=middle;whiteSpace=wrap;rounded=0;fontSize=10;" parent="1" vertex="1">
          <mxGeometry x="360" y="125" width="60" height="20" as="geometry" />
        </mxCell>
        <mxCell id="ZH2C90KEbSrW8FDwR5a0-12" value="View" style="text;html=1;strokeColor=none;fillColor=none;align=left;verticalAlign=middle;whiteSpace=wrap;rounded=0;fontSize=10;" parent="1" vertex="1">
          <mxGeometry x="360" y="165" width="60" height="20" as="geometry" />
        </mxCell>
        <mxCell id="ZH2C90KEbSrW8FDwR5a0-13" value="Remove" style="text;html=1;strokeColor=none;fillColor=none;align=left;verticalAlign=middle;whiteSpace=wrap;rounded=0;fontSize=10;" parent="1" vertex="1">
          <mxGeometry x="300" y="85" width="60" height="20" as="geometry" />
        </mxCell>
        <mxCell id="ZH2C90KEbSrW8FDwR5a0-14" value="Remove" style="text;html=1;strokeColor=none;fillColor=none;align=left;verticalAlign=middle;whiteSpace=wrap;rounded=0;fontSize=10;" parent="1" vertex="1">
          <mxGeometry x="300" y="125" width="60" height="20" as="geometry" />
        </mxCell>
        <mxCell id="ZH2C90KEbSrW8FDwR5a0-15" value="Remove" style="text;html=1;strokeColor=none;fillColor=none;align=left;verticalAlign=middle;whiteSpace=wrap;rounded=0;fontSize=10;" parent="1" vertex="1">
          <mxGeometry x="300" y="165" width="60" height="20" as="geometry" />
        </mxCell>
        <mxCell id="ZH2C90KEbSrW8FDwR5a0-16" value="Brands #1" style="text;html=1;strokeColor=none;fillColor=none;align=left;verticalAlign=middle;whiteSpace=wrap;rounded=0;fontSize=10;" parent="1" vertex="1">
          <mxGeometry x="65" y="125" width="60" height="20" as="geometry" />
        </mxCell>
        <mxCell id="ZH2C90KEbSrW8FDwR5a0-17" value="Brands #1" style="text;html=1;strokeColor=none;fillColor=none;align=left;verticalAlign=middle;whiteSpace=wrap;rounded=0;fontSize=10;" parent="1" vertex="1">
          <mxGeometry x="65" y="165" width="60" height="20" as="geometry" />
        </mxCell>
      </root>
    </mxGraphModel>
  </diagram>
</mxfile>
